# xmcd
#
# Track frame offsets:
#	150
#	17890
#	40900
#	59765
#	79712
#	100790
#	121375
#	139410
#	160700
#	183330
#	203592
#	224752
#	253102
#	275235
#	297490
#
# Disc length: 4261 seconds
#
# Revision: 1
# Processed by: cddbd v1.5.1PL0 Copyright (c) Steve Scherf et al.
# Submitted via: CDex 1.50Beta5
#
DISCID=ed10a30f
DTITLE=キム・ヨンジャ - キム・ヨンジャ名曲集
DYEAR=1998
DGENRE=World
TTITLE0=朝の国から
TTITLE1=叱ってあげる
TTITLE2=暗夜航路
TTITLE3=愛の伝説
TTITLE4=哀恋歌
TTITLE5=北の海明け
TTITLE6=春告鳥
TTITLE7=道しるべ
TTITLE8=ひとり居酒屋
TTITLE9=川の流れのように
TTITLE10=天城ごえ
TTITLE11=十三湖の雪うた
TTITLE12=みだれ髪
TTITLE13=越冬つばめ
TTITLE14=愛燦燦
EXTD=
EXTT0=
EXTT1=
EXTT2=
EXTT3=
EXTT4=
EXTT5=
EXTT6=
EXTT7=
EXTT8=
EXTT9=
EXTT10=
EXTT11=
EXTT12=
EXTT13=
EXTT14=
PLAYORDER=
